<?xml version="1.0" standalone="no"?>
<!DOCTYPE svg PUBLIC "-//W3C//DTD SVG 20010904//EN"
 "http://www.w3.org/TR/2001/REC-SVG-20010904/DTD/svg10.dtd">
<svg version="1.0" xmlns="http://www.w3.org/2000/svg"
 width="1280.000000pt" height="720.000000pt" viewBox="0 0 1280.000000 720.000000"
 preserveAspectRatio="xMidYMid meet">
<metadata>
Created by potrace 1.16, written by Peter Selinger 2001-2019
</metadata>
<g transform="translate(0.000000,720.000000) scale(0.100000,-0.100000)"
fill="#000000" stroke="none">
<path d="M0 3600 l0 -3600 6400 0 6400 0 0 3600 0 3600 -3571 0 -3571 0 -39
-27 c-21 -16 -39 -34 -39 -40 0 -7 -10 -13 -23 -13 -12 0 -56 -9 -96 -20 -40
-12 -75 -19 -77 -17 -8 8 37 40 108 78 l73 38 -2782 1 -2783 0 0 -3600z m5510
3471 c0 -6 -5 -13 -10 -16 -6 -4 -8 -11 -5 -16 4 -5 1 -9 -4 -9 -6 0 -11 -9
-11 -20 0 -11 -5 -19 -12 -17 -7 1 -12 -3 -13 -10 0 -7 -8 -22 -17 -33 -10
-11 -18 -25 -18 -30 0 -6 -4 -10 -10 -10 -5 0 -10 5 -10 10 0 12 -59 12 -115
1 l-40 -9 40 -1 c74 -2 114 -12 108 -27 -3 -8 -9 -12 -13 -9 -4 3 -18 -6 -31
-19 -18 -17 -40 -25 -91 -30 -36 -3 -82 -13 -102 -21 -66 -28 -72 -17 -23 40
20 23 50 44 73 51 27 8 32 12 17 13 -13 1 -23 4 -23 7 0 19 151 133 197 150
44 15 113 18 113 5z m-206 -331 c-10 -16 -31 -44 -46 -62 -26 -30 -103 -158
-120 -199 -4 -12 -25 -18 -75 -22 -37 -4 -90 -9 -117 -13 -71 -10 -51 10 25
25 33 7 79 11 101 10 34 -3 42 0 54 21 7 14 13 28 14 33 0 13 -29 8 -37 -7
-10 -17 -73 -32 -73 -17 0 6 14 11 30 11 17 0 30 5 30 11 0 8 -14 10 -39 6
-31 -4 -38 -2 -34 9 3 8 11 14 19 14 7 0 11 6 9 13 -3 6 14 46 37 87 l43 75
85 3 c61 2 87 7 93 17 4 8 10 15 13 15 3 0 -3 -13 -12 -30z m2092 -366 c2 -10
-3 -14 -12 -10 -8 3 -12 2 -9 -3 3 -5 -3 -11 -12 -13 -11 -2 -4 -8 20 -15 20
-6 35 -7 31 -2 -3 5 -13 9 -22 9 -15 1 -15 2 1 11 14 8 21 7 31 -6 10 -14 17
-15 33 -7 16 9 20 8 20 -4 0 -8 -6 -13 -13 -10 -7 3 -15 -1 -17 -8 -4 -10 4
-11 38 -4 31 7 50 6 62 -2 16 -10 16 -11 -4 -7 -13 3 -23 1 -23 -3 0 -16 35
-16 55 -1 15 12 14 10 -3 -11 -15 -16 -20 -28 -13 -33 6 -3 11 0 12 7 0 7 5 0
11 -15 7 -20 7 -32 -2 -42 -9 -11 -10 -15 -1 -15 7 0 10 -4 6 -10 -3 -5 -12
-7 -19 -4 -8 3 -17 1 -20 -4 -3 -5 6 -9 19 -9 14 0 28 3 31 8 9 15 41 10 48
-7 3 -8 2 -12 -4 -9 -6 3 -10 -1 -10 -9 0 -10 -6 -13 -17 -10 -15 5 -15 3 1
-10 11 -9 14 -16 8 -16 -7 0 -12 -5 -12 -11 0 -6 -10 -19 -22 -30 -13 -10 -17
-18 -10 -19 6 0 12 5 12 11 0 6 6 9 13 6 40 -15 57 -17 57 -8 0 5 -10 12 -22
14 -22 4 -21 4 2 6 29 1 54 -28 59 -70 0 -5 5 -7 11 -4 13 8 8 -78 -5 -87 -6
-5 -4 -8 5 -8 9 0 23 -9 33 -20 20 -23 22 -34 5 -24 -7 4 -8 3 -4 -5 4 -6 12
-9 17 -6 11 7 24 -24 28 -68 1 -5 7 -5 14 -1 6 4 9 4 5 -1 -4 -4 -4 -13 1 -19
26 -33 36 -104 29 -203 -1 -7 -8 -13 -16 -13 -9 0 -12 -6 -8 -16 3 -8 2 -12
-4 -9 -5 3 -7 20 -3 37 6 28 4 30 -18 23 -24 -7 -54 -34 -62 -58 -2 -6 -7 -9
-11 -5 -4 3 -3 16 3 27 10 17 9 20 -4 15 -8 -3 -12 -10 -9 -15 3 -5 -5 -9 -18
-9 -18 0 -20 -2 -8 -10 8 -5 11 -10 5 -10 -5 0 -21 12 -35 28 -14 15 -20 21
-15 13 9 -12 7 -12 -12 0 -12 7 -18 16 -13 19 10 6 6 48 -6 59 -3 3 -12 -3
-20 -13 -8 -11 -14 -16 -14 -10 1 17 27 44 35 36 5 -4 5 -2 2 4 -3 6 -16 10
-29 8 -13 -1 -27 -3 -31 -3 -5 -1 -6 -5 -2 -10 3 -6 -3 -15 -12 -21 -17 -11
-17 -11 0 -6 10 3 16 2 12 -3 -8 -15 6 -42 19 -34 6 3 4 -2 -5 -13 -21 -26
-22 -64 -2 -64 22 0 11 -10 -15 -15 -18 -3 -21 1 -20 23 1 15 7 34 15 43 11
13 10 19 -2 35 -13 18 -14 18 -8 -4 4 -18 2 -21 -11 -16 -9 3 -13 10 -10 15 3
5 1 9 -4 9 -6 0 -13 -7 -16 -16 -3 -8 -2 -12 4 -9 6 3 10 1 10 -5 0 -6 -8 -10
-17 -8 -12 2 -18 12 -17 31 0 30 -10 36 -20 11 -3 -8 -10 -13 -15 -10 -5 3
-25 -5 -44 -18 -28 -19 -34 -21 -30 -8 6 15 5 15 -10 3 -10 -8 -23 -10 -34 -5
-17 7 -25 10 -45 13 -5 0 -9 0 -10 -1 -2 -1 -14 4 -27 11 -14 8 -21 9 -17 2
11 -17 -3 -13 -26 9 -19 17 -23 18 -49 4 -16 -8 -28 -11 -28 -7 5 20 -14 40
-32 36 -10 -3 -19 -8 -19 -12 0 -4 -15 -7 -32 -8 -30 -1 -31 -1 -8 6 26 9 24
11 -29 27 -11 4 -11 7 0 21 12 14 12 16 0 9 -9 -6 -12 -5 -9 5 3 8 14 12 24
11 10 -2 16 -1 12 3 -3 3 -14 8 -25 9 -25 4 -18 21 9 21 12 0 23 5 25 12 3 7
-3 9 -16 6 -23 -6 -28 6 -9 25 9 9 9 12 -1 12 -7 0 -9 5 -4 13 4 6 8 18 9 25
3 18 14 29 14 14 0 -7 5 -12 10 -12 14 0 12 13 -6 36 -8 10 -12 13 -8 5 5 -9
3 -12 -4 -7 -7 4 -12 14 -12 22 0 9 5 12 12 8 7 -5 9 -2 5 9 -3 9 -1 17 4 19
11 4 16 42 8 68 -3 11 7 17 41 21 43 6 43 6 10 9 -19 1 -27 4 -18 7 12 3 17
13 16 29 -2 25 -14 32 -20 12 -3 -7 -7 -4 -12 7 -4 11 -4 16 0 12 4 -4 15 0
25 9 17 15 17 17 -6 39 -14 12 -22 25 -18 28 10 11 25 8 18 -3 -3 -5 -1 -10 5
-10 7 0 9 7 6 16 -4 9 -1 24 6 32 11 13 10 15 -4 9 -12 -4 -18 -2 -18 8 0 8 5
15 11 15 5 0 7 5 4 10 -3 6 0 10 7 10 9 0 9 3 -2 10 -13 9 -12 12 4 25 11 8
15 15 8 15 -6 0 -9 7 -6 15 4 10 0 15 -12 14 -11 0 -14 -3 -7 -5 17 -7 4 -34
-16 -34 -13 0 -13 2 -2 9 7 5 11 13 8 19 -4 5 3 18 15 28 12 11 18 13 13 5 -4
-7 6 -3 23 9 18 13 44 23 62 22 16 0 30 3 30 7 0 4 15 7 33 6 17 -1 36 3 40 9
6 7 7 5 4 -6 -4 -9 1 -19 10 -22 10 -4 13 -2 10 8 -4 10 0 12 15 8 15 -4 17
-7 6 -14 -9 -7 -8 -8 5 -4 11 3 30 9 43 12 21 5 23 9 12 23 -10 13 -10 14 2 4
8 -7 15 -20 16 -29z m-2371 -334 c27 -29 31 -91 8 -119 -17 -21 -25 -23 -65
-17 -47 7 -60 21 -72 77 -15 68 82 111 129 59z m-3105 -429 c0 -5 10 -11 22
-13 51 -7 79 -128 54 -227 -8 -31 -22 -87 -31 -126 -9 -38 -23 -95 -30 -125
-46 -180 -52 -221 -54 -335 -1 -66 -4 -132 -7 -147 -3 -14 -1 -29 4 -32 15 -9
37 25 61 99 22 66 58 149 119 275 15 30 29 57 32 60 3 3 14 21 24 40 10 19 27
44 36 55 10 11 34 45 53 76 60 94 147 166 336 277 55 32 161 69 271 93 79 18
128 22 290 22 202 1 299 -11 430 -53 164 -52 357 -195 441 -326 50 -77 77 -89
117 -51 15 13 38 27 52 30 14 2 70 19 125 37 91 29 143 44 292 85 29 8 77 23
107 33 l55 19 5 -26 c3 -14 8 -48 11 -76 33 -268 134 -546 231 -635 43 -40 47
-41 92 -35 81 11 86 11 96 -10 56 -108 144 -195 196 -195 37 0 40 -6 24 -53
-21 -67 -75 -377 -69 -398 10 -30 -36 -42 -131 -35 -135 10 -268 -36 -392
-136 -90 -71 -76 -58 -261 -260 -79 -87 -148 -158 -153 -158 -11 0 -152 22
-155 25 -2 1 2 17 8 36 5 19 14 57 19 84 65 354 77 429 90 540 6 55 15 118 20
140 5 22 16 77 26 123 16 76 16 84 1 99 -12 12 -19 13 -29 6 -7 -6 -38 -18
-69 -27 -86 -25 -92 -35 -94 -174 -2 -64 -8 -130 -14 -145 -6 -16 -11 -51 -11
-79 0 -29 -9 -77 -19 -107 -11 -31 -31 -103 -46 -161 -38 -156 -93 -323 -131
-404 -67 -141 -169 -308 -230 -373 -39 -42 -48 -63 -28 -63 33 0 -6 -28 -75
-55 -47 -18 -71 -33 -79 -49 -6 -13 -23 -30 -39 -38 -15 -8 -71 -38 -123 -68
-92 -51 -186 -89 -223 -90 -9 0 -25 -4 -35 -9 -63 -33 -402 -46 -575 -21 -90
12 -300 80 -317 101 -3 4 -27 18 -55 32 -175 89 -340 311 -394 530 -23 94 -51
309 -51 397 0 30 -9 87 -18 125 -15 56 -22 70 -37 70 -25 0 -28 -15 -59 -260
-14 -110 -27 -218 -30 -240 -3 -22 -16 -114 -30 -205 -13 -91 -30 -207 -36
-258 -14 -110 -37 -168 -82 -206 -59 -49 -84 -55 -204 -45 -60 4 -225 8 -367
8 l-259 1 -39 37 c-48 46 -74 110 -64 155 4 18 11 51 16 73 5 22 16 74 23 115
8 41 19 100 25 130 35 172 75 382 97 500 13 74 29 148 34 164 6 16 10 46 10
67 0 21 4 49 10 63 5 14 14 94 21 178 10 145 17 186 55 329 14 54 15 63 1 76
-13 13 -26 12 -118 -7 -57 -12 -113 -26 -124 -31 -50 -21 -147 -49 -172 -49
-38 0 -67 21 -90 67 -32 61 -35 112 -14 215 65 316 70 336 108 413 58 116 97
155 179 174 33 7 93 23 134 36 41 12 102 30 135 39 125 34 142 39 213 62 40
13 121 33 180 44 112 21 203 44 237 60 11 5 63 20 115 34 52 14 131 37 175 50
82 26 155 33 155 17z m5533 -251 c-13 -5 -23 -11 -23 -12 0 -2 21 -4 46 -6 29
-1 43 1 39 8 -3 5 -2 10 3 10 5 0 12 -14 16 -31 3 -17 10 -28 16 -24 5 3 10
-1 10 -9 0 -8 9 -18 20 -21 15 -5 20 -15 20 -41 0 -19 5 -34 12 -34 6 0 8 -3
5 -6 -3 -4 4 -15 18 -26 15 -12 22 -26 20 -39 -2 -12 3 -28 11 -36 8 -9 13
-17 10 -20 -8 -8 -56 -10 -56 -3 0 4 -7 11 -16 14 -14 5 -15 4 -4 -9 10 -12
10 -15 -4 -15 -9 0 -16 -7 -16 -15 0 -8 5 -15 11 -15 5 0 8 4 5 8 -3 5 1 9 9
9 8 0 12 -4 9 -9 -3 -4 -1 -8 4 -8 5 0 8 -11 7 -25 -4 -29 9 -33 50 -20 18 6
18 5 2 -5 -9 -6 -14 -16 -11 -22 4 -6 3 -8 -3 -5 -14 9 -58 -44 -54 -67 1 -11
-2 -16 -9 -11 -7 5 -9 -2 -4 -21 6 -24 5 -26 -12 -21 -18 7 -18 6 -2 -6 10 -8
16 -16 13 -19 -3 -2 4 -22 14 -44 10 -21 19 -52 19 -67 0 -25 -3 -27 -27 -23
-14 3 -46 8 -71 12 -25 3 -50 11 -57 16 -7 6 -33 7 -63 3 -34 -5 -50 -3 -50 4
0 6 -7 11 -15 11 -8 0 -15 4 -15 10 0 5 7 7 15 4 8 -4 15 -1 15 6 0 8 10 9 32
4 30 -6 31 -5 18 11 -13 15 -12 17 5 14 11 -2 26 0 34 5 10 6 12 5 7 -2 -8
-13 -4 -15 18 -6 23 9 8 33 -17 26 -19 -5 -19 -4 -6 10 10 12 18 13 27 6 19
-16 28 0 13 24 -7 11 -8 17 -2 13 6 -3 11 -1 11 4 0 6 -4 11 -8 11 -5 0 -9 7
-9 15 0 11 4 12 14 4 10 -9 18 -7 11 4 -1 1 4 13 11 26 8 14 9 21 2 17 -15
-10 -14 3 2 18 7 7 19 11 27 9 8 -2 5 2 -8 10 -12 7 -19 17 -15 22 4 4 2 5 -4
1 -8 -4 -13 -2 -13 6 -1 7 -10 2 -22 -12 -11 -14 -25 -24 -30 -22 -5 1 -7 -2
-3 -7 3 -6 12 -8 19 -5 7 3 16 -1 19 -9 4 -11 0 -13 -15 -9 -13 3 -19 1 -15
-5 4 -6 -1 -17 -10 -24 -12 -10 -14 -10 -9 -1 11 19 -2 14 -25 -9 l-21 -21
-22 23 c-11 13 -25 25 -31 26 -5 1 -19 5 -30 8 -16 6 -17 5 -5 -4 11 -8 11
-11 3 -12 -23 -3 -27 -4 -60 -18 -18 -7 -33 -17 -33 -22 0 -5 -7 -9 -17 -9 -9
0 -31 -11 -50 -26 -18 -14 -38 -22 -45 -18 -7 4 -8 3 -4 -4 4 -7 2 -12 -4 -12
-6 0 -8 -4 -5 -10 3 -5 11 -10 16 -10 6 0 7 5 4 10 -4 6 5 10 20 10 18 0 24
-4 19 -12 -5 -9 -2 -9 9 1 11 9 17 10 17 2 0 -22 -2 -26 -13 -23 -6 2 -6 -3 2
-12 8 -10 9 -16 1 -21 -5 -3 -10 -11 -10 -16 0 -6 5 -7 10 -4 15 9 12 -11 -3
-27 -8 -7 -12 -19 -9 -26 2 -8 -2 -10 -14 -5 -11 4 -15 3 -10 -5 8 -13 -40
-10 -52 3 -4 4 -2 5 4 2 6 -3 11 0 11 8 0 11 -4 12 -13 4 -6 -5 -16 -9 -20 -7
-5 1 -18 -3 -29 -8 -11 -6 -32 -10 -47 -9 -15 1 -25 -2 -22 -7 3 -4 0 -8 -5
-8 -18 0 -12 -17 7 -22 10 -3 19 -12 19 -21 0 -8 -6 -13 -14 -10 -12 5 -17 -7
-14 -34 1 -6 -13 -11 -34 -10 -19 1 -35 4 -35 8 0 4 13 6 29 4 23 -3 28 -1 24
14 -3 11 4 22 19 29 l23 13 -23 -5 c-13 -2 -20 0 -16 6 4 6 -1 8 -14 4 -17 -6
-21 -3 -19 14 1 11 8 20 16 20 11 0 12 3 4 11 -8 8 -17 7 -34 -2 -21 -11 -22
-10 -12 3 16 19 7 28 -29 28 -18 0 -27 4 -23 11 4 6 -2 13 -14 16 -12 3 -21
13 -21 22 0 13 -2 13 -9 2 -5 -7 -14 -10 -20 -7 -6 4 -9 10 -7 14 2 4 -6 7
-19 7 -13 0 -21 -4 -17 -9 3 -5 1 -7 -4 -4 -5 3 -18 8 -29 12 -16 6 -17 9 -5
16 13 8 12 10 -3 10 -10 0 -16 3 -14 8 3 4 -2 14 -11 22 -14 13 -15 12 -9 -3
4 -11 1 -17 -8 -17 -8 0 -15 4 -15 9 0 14 28 33 40 26 5 -3 13 1 16 9 3 9 13
16 21 16 8 0 12 4 9 8 -2 4 -1 14 5 22 6 10 9 11 9 3 0 -7 4 -13 10 -13 6 0 6
9 0 26 -6 14 -7 30 -4 35 3 6 1 16 -5 22 -7 9 -6 21 3 39 12 22 12 28 -3 43
-15 15 -14 18 11 40 19 16 23 25 14 28 -8 3 -19 0 -26 -6 -10 -10 -12 -8 -6 6
3 10 6 23 6 29 0 6 6 6 15 -2 11 -9 15 -9 15 -1 0 7 5 9 10 6 6 -4 7 -11 4
-17 -4 -6 -2 -8 4 -5 14 10 43 -3 36 -15 -9 -14 17 -29 38 -22 9 2 19 0 23 -6
6 -9 -7 -14 -28 -11 -4 0 -6 -5 -5 -11 2 -7 -4 -12 -12 -10 -12 2 -11 -1 2
-11 10 -8 15 -17 11 -20 -3 -4 -1 -8 5 -8 22 -3 27 -4 41 -13 10 -7 12 -6 6 4
-6 10 -4 12 8 7 10 -3 17 -3 17 2 0 5 15 16 33 25 29 16 29 17 6 12 -19 -4
-29 -1 -33 9 -3 8 -12 15 -21 15 -8 0 -15 5 -15 11 0 6 7 8 16 5 9 -3 20 -6
25 -6 6 0 7 -4 4 -10 -3 -5 -1 -10 4 -10 6 0 11 6 12 13 0 9 2 9 6 0 6 -17 32
7 26 23 -2 7 0 15 6 19 16 9 13 25 -5 25 -8 0 -12 -4 -9 -10 3 -5 2 -10 -3
-10 -6 0 -12 7 -16 15 -4 11 1 15 17 15 12 0 35 7 51 15 16 9 31 13 33 11 8
-8 63 16 58 24 -3 4 10 14 28 21 17 7 36 15 41 17 5 3 6 -1 2 -7 -4 -6 2 -24
13 -39 15 -22 17 -29 6 -29 -8 0 -12 4 -9 9 3 4 1 8 -5 8 -5 0 -9 -8 -8 -18 1
-18 32 -23 55 -8 7 4 12 1 12 -9 0 -9 5 -13 11 -9 7 4 7 -2 -1 -17 -11 -19
-10 -24 5 -35 10 -8 15 -20 11 -29 -3 -9 -2 -13 4 -10 6 3 10 17 10 31 0 31
16 31 22 -1 3 -13 1 -22 -3 -19 -8 5 -11 -3 -8 -22 0 -4 -5 -11 -13 -15 -9 -6
-7 -9 9 -9 15 0 21 5 17 14 -3 7 2 16 10 19 9 4 16 14 16 23 0 10 5 14 15 10
13 -4 14 -2 5 14 -9 16 -8 18 5 14 9 -4 15 -3 14 2 -4 21 2 34 15 34 17 0 30
30 13 31 -7 1 -1 4 12 8 33 9 38 29 9 40 -14 6 -17 10 -7 10 26 1 18 31 -8 31
-12 0 -23 -6 -23 -12 0 -9 -3 -8 -10 2 -5 8 -18 16 -30 16 -32 2 -33 3 -20 19
11 13 15 13 21 3 7 -10 9 -10 9 2 0 13 2 13 11 0 9 -13 10 -13 6 2 -5 13 5 18
56 26 40 6 50 10 30 11 -18 0 -33 6 -33 12 0 5 -5 7 -12 3 -7 -5 -8 -2 -3 7
17 29 28 39 44 38 11 0 9 -3 -6 -9z m-2280 -35 c9 -2 22 -7 29 -11 7 -4 8 -3
4 4 -4 7 -3 12 3 12 18 0 49 -135 42 -185 0 -5 -19 -10 -42 -10 l-41 0 -24 75
c-29 93 -32 135 -6 125 9 -4 25 -8 35 -10z m3474 -103 c71 -6 86 -11 111 -35
20 -19 28 -35 25 -48 -7 -24 32 -27 41 -3 5 13 9 14 22 4 12 -11 12 -15 2 -22
-8 -6 -4 -7 12 -2 14 3 22 3 18 -1 -4 -4 4 -16 17 -27 29 -23 26 -33 -12 -43
-15 -3 -31 -12 -35 -18 -11 -18 -261 -16 -318 2 -56 18 -62 23 -54 44 4 12 18
17 43 17 20 1 73 6 119 13 l84 13 -22 19 c-17 16 -42 20 -136 25 -63 4 -120
12 -125 17 -6 6 -8 20 -4 32 6 18 14 21 68 20 34 0 99 -4 144 -7z m-258 -194
c36 -17 68 -34 71 -38 3 -4 39 -25 80 -46 41 -22 81 -45 88 -51 7 -7 24 -13
36 -13 13 0 29 -7 36 -15 10 -12 16 -13 26 -4 8 6 14 17 14 25 0 19 12 24 82
35 96 15 137 30 131 45 -8 21 9 17 108 -21 106 -41 139 -44 139 -15 0 13 7 20
20 20 23 0 140 -52 140 -62 0 -4 -10 -10 -22 -14 l-23 -8 25 -7 c14 -4 32 -7
40 -8 13 -1 13 0 0 9 -17 11 -9 13 14 4 14 -5 14 -9 4 -22 -11 -13 -10 -15 4
-9 15 5 16 -2 15 -54 -2 -55 2 -64 28 -60 15 3 135 -19 153 -28 10 -5 31 -15
47 -22 17 -8 33 -18 37 -24 4 -6 54 -9 120 -8 98 1 117 -1 146 -19 19 -11 38
-32 43 -46 9 -22 13 -24 52 -18 23 4 62 14 87 22 72 25 211 38 277 26 32 -5
108 -8 169 -5 60 3 263 0 450 -6 186 -6 500 -16 698 -21 397 -10 393 -10 421
-76 21 -51 20 -149 -2 -172 -10 -10 -35 -38 -55 -63 -20 -24 -55 -66 -78 -93
-23 -27 -49 -61 -58 -75 -9 -14 -22 -32 -29 -39 -7 -7 -56 -74 -110 -150 -53
-75 -100 -139 -103 -142 -15 -14 -67 -87 -73 -103 -18 -48 -191 -112 -238 -87
-10 6 -27 10 -38 10 -12 0 -21 5 -21 10 0 6 -4 10 -9 10 -5 0 -40 19 -77 42
-38 23 -94 54 -124 70 -186 96 -214 121 -207 185 3 25 0 46 -7 52 -6 5 -47 18
-91 30 -94 24 -266 79 -280 91 -5 4 -41 17 -80 30 -88 28 -113 39 -210 94 -57
33 -81 42 -87 33 -5 -8 -8 -7 -8 6 0 9 -4 17 -10 17 -5 0 -10 -12 -10 -26 0
-18 4 -24 13 -21 8 3 14 -1 14 -9 0 -17 -2 -17 -25 -5 -27 15 -150 51 -172 51
-11 0 -20 4 -20 8 0 4 -24 16 -52 26 -29 10 -73 31 -98 46 -25 15 -58 30 -74
34 -16 4 -48 16 -70 27 -22 10 -48 19 -58 19 -11 0 -16 4 -13 10 3 5 -7 12
-22 15 -15 4 -37 10 -48 15 -11 4 -27 11 -35 14 -8 3 -22 10 -30 15 -25 16
-94 45 -110 48 -8 1 -25 5 -38 9 -19 5 -23 2 -28 -25 -8 -37 -18 -38 -86 -7
-89 41 -126 56 -137 56 -6 0 -11 5 -11 10 0 6 -11 10 -24 10 -27 0 -42 35 -24
57 15 18 32 16 70 -7 18 -11 42 -20 54 -20 26 0 84 20 84 28 0 4 -17 18 -38
32 -20 14 -46 33 -56 43 -20 17 -20 17 0 18 37 2 -30 16 -108 23 -74 7 -75 7
-99 -21 -53 -61 -58 -61 -136 -5 -17 12 -58 36 -90 52 -32 17 -92 50 -133 75
-41 25 -97 57 -125 71 -68 34 -147 144 -104 144 6 0 41 -14 78 -32z m1531
-198 c0 -5 9 -10 20 -10 11 0 20 -4 20 -10 0 -5 8 -10 19 -10 23 0 38 -69 18
-82 -8 -5 -7 -8 5 -8 9 0 20 -5 24 -12 5 -7 1 -9 -13 -6 -11 3 -38 2 -59 -2
l-39 -8 45 -2 45 -2 -45 -9 c-63 -12 -122 5 -120 34 5 52 0 67 -20 67 -26 0
-25 14 2 45 16 19 31 25 60 25 21 0 38 -4 38 -10z m-2840 -189 c0 -5 -7 -11
-15 -15 -8 -3 -15 -11 -14 -18 0 -10 2 -10 6 0 2 6 11 12 19 12 9 0 12 -4 9
-10 -9 -14 9 -12 24 3 10 10 11 9 6 -5 -5 -13 -2 -18 10 -18 10 0 15 -5 12
-13 -3 -8 3 -14 14 -14 12 -1 19 5 19 15 0 12 -3 13 -8 5 -6 -9 -11 -7 -20 7
-10 16 -9 18 5 13 11 -4 14 -3 9 5 -4 7 -3 12 2 12 9 0 25 -36 24 -51 -1 -4
47 -6 106 -6 161 0 165 -1 158 -18 -3 -8 -2 -14 2 -14 21 3 32 -2 26 -13 -5
-8 -2 -9 11 -4 18 6 18 6 -1 -15 -10 -12 -14 -20 -9 -16 6 3 16 2 23 -2 7 -4
4 -11 -11 -20 -12 -8 -19 -10 -15 -6 4 4 1 14 -7 21 -8 8 -12 22 -9 32 5 16 5
16 -5 0 -7 -10 -19 -14 -31 -11 -12 3 -20 0 -20 -7 0 -7 6 -10 14 -7 8 3 20
-1 26 -9 7 -8 9 -15 4 -15 -37 -6 -53 -5 -49 1 3 4 -2 11 -11 14 -10 4 -13 2
-8 -6 5 -8 2 -9 -10 -5 -27 10 -86 -18 -86 -42 0 -27 -15 -35 -17 -9 -1 12 7
30 19 40 12 10 18 21 15 25 -9 9 -59 -46 -52 -58 9 -13 -9 -11 -24 4 -11 10
-12 8 -7 -10 4 -13 2 -31 -4 -40 -9 -15 -10 -14 -5 7 6 23 5 24 -6 5 -18 -28
-36 -45 -48 -45 -6 0 -16 -10 -22 -22 -8 -15 -14 -19 -17 -10 -3 10 -8 9 -23
-4 -10 -9 -19 -13 -19 -9 0 5 -19 -9 -41 -30 l-41 -40 16 33 c9 17 21 32 26
32 6 0 10 5 10 11 0 5 -5 7 -12 3 -6 -4 -8 -3 -5 3 4 6 21 10 38 9 18 -1 34 4
39 13 7 12 9 13 10 2 0 -8 12 4 26 25 15 21 32 42 38 46 8 5 8 8 0 8 -6 0 -23
-17 -37 -37 -15 -21 -27 -34 -27 -29 0 5 -6 4 -12 -1 -20 -15 -58 -14 -52 1 3
7 -2 13 -11 13 -8 0 -14 -5 -13 -11 3 -13 -21 -58 -36 -68 -6 -4 -18 -8 -26
-8 -9 0 -3 8 13 18 15 9 27 20 27 25 0 4 -10 1 -22 -7 -15 -11 -25 -12 -34 -5
-14 11 -7 42 7 34 4 -3 5 -13 2 -22 -5 -13 -3 -13 20 2 15 9 27 14 27 9 0 -4
2 -5 5 -2 3 3 1 17 -4 31 -7 18 -7 27 2 30 9 3 8 8 -2 18 -8 8 -11 9 -7 2 3
-6 2 -14 -3 -18 -5 -3 -8 -14 -6 -25 2 -11 -1 -23 -7 -26 -7 -4 -8 -2 -4 4 4
7 1 12 -9 12 -19 0 -45 23 -45 40 0 8 -8 10 -21 7 -12 -3 -18 -3 -15 0 3 4 1
11 -4 18 -6 8 -4 18 8 31 10 11 17 25 14 32 -2 6 1 12 7 12 6 0 8 8 5 18 -5
14 -3 14 10 -2 9 -11 16 -14 16 -8 0 7 7 12 16 12 10 0 14 -5 10 -16 -3 -8 -2
-12 4 -9 5 3 7 20 5 38 -3 27 -2 30 9 15 11 -15 13 -15 24 3 7 11 10 25 6 31
-5 7 -2 9 8 5 11 -4 15 0 14 11 -2 9 4 27 12 40 14 22 32 30 32 13z m-1476
-203 c35 -98 56 -189 66 -293 13 -140 4 -298 -20 -328 l-17 -21 -79 31 c-43
17 -97 37 -119 43 -73 21 -76 27 -55 96 29 89 63 287 73 424 2 31 46 71 70 64
10 -3 20 1 23 10 12 31 42 18 58 -26z m3163 -12 c86 -25 123 -42 158 -71 45
-37 71 -42 44 -9 -13 16 -12 16 7 6 11 -6 27 -19 35 -28 13 -16 12 -17 -5 -11
-12 5 -6 -6 18 -33 20 -22 36 -48 36 -58 3 -92 19 -295 24 -300 4 -3 11 -1 15
7 5 8 18 -19 35 -76 40 -128 70 -188 129 -250 58 -62 108 -94 188 -122 103
-35 191 -35 347 0 29 6 54 10 56 8 2 -2 0 -31 -5 -64 -44 -309 -62 -437 -75
-535 -8 -63 -22 -134 -30 -157 -18 -51 -70 -99 -121 -112 -46 -12 -580 -17
-608 -5 -11 4 -29 16 -40 26 -25 24 -133 78 -155 78 -9 0 -20 4 -25 9 -14 12
-220 91 -239 91 -8 0 -29 18 -47 40 -18 22 -36 37 -40 34 -5 -3 -6 1 -3 9 3 9
-16 39 -47 73 -28 33 -76 93 -107 134 -30 41 -65 84 -78 95 l-23 20 33 100
c45 133 95 337 109 447 12 86 13 88 47 106 34 17 35 19 49 111 10 71 11 99 2
112 -26 42 -6 79 41 79 34 0 41 14 58 115 20 120 21 125 43 145 28 27 43 25
174 -14z m-1024 -40 c10 -8 28 -12 40 -9 13 3 18 1 12 -4 -5 -4 -10 -14 -10
-22 0 -8 -6 -16 -14 -19 -9 -3 -11 0 -7 9 4 8 1 7 -5 -2 -10 -13 -17 -14 -48
-3 -24 8 -42 9 -54 3 -9 -6 -21 -7 -26 -4 -5 3 -47 6 -93 6 -81 1 -161 -13
-183 -31 -7 -5 -21 -11 -32 -13 -20 -3 -60 -27 -88 -55 -19 -18 -30 4 -12 23
9 8 17 18 19 22 5 13 88 54 157 78 54 19 81 22 151 19 47 -2 98 -6 113 -8 18
-2 31 2 34 10 6 18 23 17 46 0z m1457 -116 c7 12 14 11 45 -6 42 -22 55 -57
31 -83 -20 -22 -21 -45 -2 -60 12 -10 18 -7 30 17 9 17 23 37 31 46 19 19 37
11 175 -75 47 -29 128 -77 180 -106 52 -30 102 -61 111 -69 8 -8 19 -14 22
-14 10 0 115 -69 122 -80 13 -21 -119 -234 -177 -285 -59 -52 -78 -59 -159
-57 -139 3 -283 76 -339 172 -27 46 -41 91 -60 193 -11 56 -30 78 -30 35 -1
-18 -2 -20 -9 -8 -13 21 -29 116 -41 247 -10 101 -10 113 6 132 17 19 19 19
37 4 15 -15 20 -15 27 -3z m-1690 -122 c8 0 24 2 35 5 46 11 84 -29 56 -58 -5
-6 -11 -31 -13 -57 -3 -41 -1 -46 17 -44 12 1 26 6 33 10 7 4 17 4 24 0 7 -4
8 -3 4 4 -4 6 1 23 10 37 9 14 12 25 8 26 -5 0 0 4 11 9 65 28 123 -7 88 -54
-10 -13 -27 -24 -38 -24 -53 -1 -112 -15 -136 -32 -23 -17 -26 -17 -37 -1 -10
15 -11 15 -11 -1 -1 -10 -11 -22 -22 -29 -15 -8 -19 -8 -15 0 4 6 0 14 -9 18
-10 3 -21 0 -26 -8 -6 -9 -9 -10 -9 -2 0 6 -9 10 -20 8 -11 -2 -22 0 -25 5 -3
5 -14 7 -25 5 -11 -2 -20 0 -20 6 0 5 -5 9 -11 9 -5 0 -7 -4 -4 -10 10 -16 -7
-12 -27 7 -11 9 -24 18 -31 19 -7 2 -22 5 -34 8 -28 6 -28 2 -3 -34 11 -15 16
-31 12 -35 -4 -5 -1 -5 5 -1 10 5 9 13 -4 33 l-18 26 28 -18 c21 -14 25 -20
16 -31 -9 -11 -8 -18 2 -31 8 -10 9 -14 2 -10 -6 4 -15 3 -18 -3 -4 -6 -1 -9
7 -8 7 2 12 -3 10 -10 -2 -10 2 -10 18 0 11 7 15 15 9 19 -7 4 -6 8 3 11 9 4
15 -3 16 -19 1 -14 -2 -21 -8 -18 -6 3 -10 1 -10 -4 0 -6 9 -11 20 -11 31 0
24 -17 -9 -22 -23 -3 -28 -1 -24 11 3 9 -5 5 -17 -9 -19 -22 -20 -22 -11 -3 9
19 7 25 -18 42 -16 12 -35 21 -41 21 -9 0 -9 4 1 17 12 15 12 16 -3 10 -10 -3
-20 -2 -23 4 -4 5 -12 6 -18 2 -7 -4 -6 0 2 10 10 13 10 17 1 17 -9 0 -9 4 1
17 13 15 12 15 -10 3 -21 -11 -23 -10 -18 4 4 10 1 19 -8 22 -19 8 -19 24 0
24 8 0 15 4 15 9 0 20 -18 20 -39 0 -12 -12 -25 -18 -28 -15 -8 7 23 33 57 47
14 6 45 11 69 10 24 -1 49 3 55 7 24 19 60 21 81 4 11 -9 14 -10 8 -2 -7 8
-13 24 -13 36 0 28 13 33 70 27 25 -2 52 -4 60 -5z m236 -213 c14 -4 14 -6 0
-21 -9 -8 -16 -22 -16 -30 0 -8 -5 -14 -11 -14 -5 0 -7 -6 -3 -12 4 -7 4 -10
-1 -6 -4 4 -14 3 -22 -3 -10 -9 -17 -8 -29 1 -15 14 -224 17 -245 5 -5 -4 -17
1 -26 10 -15 15 -13 16 21 10 36 -7 37 -7 30 19 -5 20 -2 26 10 26 12 0 15 -6
11 -23 -5 -17 -2 -24 9 -24 8 0 15 3 14 6 -3 30 4 34 22 11 l21 -25 -7 28 c-5
23 -3 27 14 27 12 0 24 -4 27 -10 7 -12 26 -14 24 -2 -3 18 2 26 9 16 8 -13
66 -29 58 -16 -5 8 27 9 59 3 6 -1 -3 -13 -20 -26 -16 -13 -26 -28 -21 -32 4
-4 18 5 31 22 21 26 23 31 10 45 -19 21 -19 31 0 25 8 -3 22 -7 31 -10z
m-2168 -270 c1 -11 -16 -44 -38 -73 -22 -29 -40 -57 -40 -62 0 -6 -4 -10 -9
-10 -5 0 -11 -9 -14 -20 -3 -11 -12 -20 -21 -20 -9 0 -16 -6 -16 -14 0 -10 -8
-13 -22 -11 -28 6 -48 -11 -48 -41 0 -14 -6 -24 -14 -24 -19 0 -32 20 -14 21
7 0 3 4 -9 9 -30 12 -29 38 2 52 14 6 26 15 26 20 1 4 2 12 3 17 0 5 4 12 8
16 4 4 4 13 2 20 -3 7 -1 16 4 19 15 9 42 -4 42 -20 0 -8 9 -14 20 -14 20 0
23 7 24 65 1 21 8 33 24 40 12 5 22 15 22 22 0 15 30 33 50 30 8 -1 16 -11 18
-22z m5109 -267 c32 -11 85 -38 118 -59 33 -21 89 -55 125 -75 36 -21 101 -61
145 -90 102 -66 165 -103 188 -111 9 -3 17 -9 17 -14 0 -5 5 -9 10 -9 6 0 36
-16 66 -35 30 -19 61 -35 68 -35 8 0 16 -6 19 -12 3 -7 27 -24 53 -38 27 -14
58 -33 68 -42 11 -10 24 -18 28 -18 5 0 36 -18 69 -39 61 -39 159 -154 144
-169 -7 -8 -1023 -30 -1446 -31 -281 -1 -300 2 -358 47 -18 14 -25 32 -28 69
-6 59 11 98 66 152 20 20 50 54 66 76 17 22 68 90 115 150 47 61 100 133 119
160 51 75 107 123 149 130 21 4 44 8 52 10 43 9 95 3 147 -17z m-5339 -28 c14
0 16 -22 3 -35 -6 -6 24 -34 82 -75 51 -36 136 -99 190 -141 246 -192 509
-292 860 -330 239 -25 508 39 621 148 25 24 37 31 40 22 19 -56 46 -170 46
-192 0 -43 -98 -132 -195 -178 -86 -41 -171 -63 -305 -79 -233 -28 -410 9
-679 140 -114 56 -313 176 -331 200 -3 3 -39 32 -80 65 -133 104 -259 240
-324 348 -42 72 -55 102 -47 110 8 8 14 8 23 -1 16 -16 28 -15 28 2 0 20 22
26 41 10 8 -8 21 -14 27 -14z m-1960 -1015 c137 -47 182 -179 121 -353 -22
-65 -77 -134 -119 -152 -23 -9 -28 -15 -18 -21 28 -18 55 -7 103 42 106 108
201 152 335 153 95 0 153 -19 202 -68 l27 -28 7 36 6 36 145 0 c133 0 144 -1
139 -17 -3 -10 -35 -187 -71 -393 -37 -206 -69 -378 -72 -383 -4 -7 -260 -8
-274 -1 -4 2 -3 22 1 44 l8 41 -27 -25 c-14 -14 -53 -37 -86 -53 -52 -24 -72
-28 -150 -28 -76 0 -99 4 -145 26 -30 14 -70 40 -89 57 -33 32 -33 32 -60 13
-70 -49 -236 -81 -419 -81 l-63 0 31 -44 32 -44 1414 2 c1341 1 1414 0 1414
-16 0 -17 -74 -18 -1410 -18 -775 0 -1410 -2 -1410 -4 0 -2 6 -18 13 -36 13
-29 18 -32 65 -34 100 -6 162 -69 162 -166 0 -43 -6 -66 -23 -91 -29 -44 -100
-81 -149 -77 -20 2 -34 0 -32 -4 9 -14 -84 -196 -130 -257 -72 -93 -199 -194
-220 -174 -3 4 -6 0 -6 -7 0 -10 -16 -11 -71 -6 -80 7 -138 30 -186 74 -34 31
-93 133 -93 161 0 9 14 -13 32 -48 57 -116 128 -165 238 -166 51 0 77 6 121
28 59 29 166 132 161 155 -2 7 1 11 5 10 4 -2 9 1 10 5 1 5 11 17 22 26 11 10
18 21 14 24 -3 4 2 18 11 31 9 14 16 32 16 40 0 7 7 17 16 20 8 3 12 11 9 17
-4 5 0 18 8 27 23 27 17 50 -21 78 -79 61 -84 202 -9 261 22 17 26 27 22 59
-2 22 -4 42 -4 47 -1 4 -523 7 -1161 7 -1159 0 -1160 0 -1160 20 0 21 2 21
897 20 l896 -1 44 50 c25 28 69 67 99 87 30 20 54 40 54 45 0 10 166 951 181
1027 l10 52 267 -3 c226 -3 275 -7 320 -22z m-2148 -11 c0 -14 -4 -44 -10 -67
-5 -23 -28 -148 -50 -277 -23 -129 -64 -357 -91 -507 -27 -149 -49 -274 -49
-277 0 -3 -75 -6 -166 -6 l-166 0 6 28 c8 39 117 659 123 704 l5 37 -111 -33
c-61 -18 -111 -30 -111 -27 1 28 49 273 54 279 7 7 531 169 554 171 6 1 12
-10 12 -25z m620 10 c97 -29 171 -92 206 -178 23 -55 34 -59 34 -12 0 33 2 35
63 55 168 54 509 153 513 148 5 -5 -26 -193 -91 -542 -18 -99 -50 -278 -71
-397 l-39 -218 -162 0 c-124 0 -163 3 -163 13 0 6 9 64 21 127 11 63 33 192
49 285 16 94 36 208 45 254 9 46 14 85 12 87 -2 3 -15 0 -28 -5 -13 -6 -50
-18 -81 -26 l-58 -16 0 -43 c0 -60 -26 -208 -51 -286 -91 -289 -266 -424 -525
-407 -190 13 -310 125 -343 318 -16 94 -14 161 9 291 53 308 177 493 369 552
64 20 224 20 291 0z m8152 -23 c18 -17 57 -140 65 -203 4 -26 0 -41 -14 -55
-10 -10 -27 -30 -38 -45 -14 -20 -30 -28 -55 -29 -71 -4 -90 0 -91 19 0 14 -2
14 -9 -3 -8 -19 -9 -19 -9 3 -1 13 -5 20 -11 17 -6 -3 -10 5 -10 19 0 13 -5
26 -11 28 -9 3 -9 17 0 56 6 29 11 66 11 83 0 28 21 67 64 117 16 18 26 21 55
16 20 -3 44 -14 53 -23z m-5335 -345 c-3 -7 -9 -35 -13 -62 l-7 -49 51 47 c53
50 135 82 190 76 l28 -3 -20 -111 -19 -110 -65 -12 c-157 -26 -204 -96 -252
-371 -17 -96 -33 -177 -35 -181 -2 -4 -63 -7 -135 -7 -101 -1 -133 2 -137 13
-2 7 26 187 63 399 l68 385 144 0 c118 0 143 -2 139 -14z m1082 -3 c-8 -10
-73 -88 -145 -173 -72 -85 -170 -202 -219 -260 l-88 -105 166 -3 166 -2 -5
-29 c-3 -16 -13 -68 -23 -117 l-16 -89 -398 -2 c-221 -1 -397 2 -397 6 0 5 48
67 108 137 59 70 162 193 230 273 l122 146 -161 3 c-161 3 -161 3 -156 25 3
12 13 64 22 115 l17 92 395 0 c375 0 395 -1 382 -17z m4266 -131 c-2 -3 7 -14
22 -25 34 -27 52 -74 48 -125 -6 -72 -16 -102 -33 -103 -13 0 -13 -2 3 -8 14
-6 -4 -11 -63 -20 -60 -9 -87 -9 -96 -1 -8 5 -20 8 -29 4 -20 -7 -37 24 -37
70 0 20 -4 36 -10 36 -5 0 -10 16 -10 35 0 38 24 95 40 95 5 0 16 7 25 16 9 9
39 19 68 23 64 8 78 9 72 3z m21 -526 c14 -11 16 -17 7 -27 -8 -8 -9 -18 -1
-35 6 -13 15 -24 19 -24 4 0 7 -26 8 -57 0 -32 5 -59 11 -61 13 -5 13 -82 0
-82 -5 0 -10 -7 -10 -15 0 -9 -6 -12 -16 -8 -9 3 -20 0 -24 -7 -12 -20 -32 4
-73 87 -37 75 -73 211 -60 224 4 4 28 9 53 12 25 2 50 4 56 5 5 1 19 -4 30
-12z m-9003 -327 c34 -9 37 -13 37 -46 0 -32 -2 -35 -22 -29 -52 16 -110 19
-118 6 -15 -23 1 -39 54 -54 66 -19 98 -52 98 -100 0 -74 -60 -115 -149 -101
-69 10 -73 13 -73 56 l0 38 35 -15 c48 -20 101 -18 110 3 7 19 -26 53 -51 53
-27 0 -82 34 -93 57 -44 95 49 167 172 132z m2500 0 c34 -9 37 -13 37 -45 0
-32 -2 -35 -22 -27 -13 4 -43 8 -68 8 -38 0 -45 -3 -45 -20 0 -14 14 -24 53
-40 69 -26 102 -58 102 -99 0 -80 -82 -123 -181 -96 -29 8 -38 16 -41 39 -6
44 0 51 30 35 57 -30 144 -7 113 30 -6 7 -32 19 -56 26 -60 17 -95 53 -95 97
0 46 15 72 53 88 39 17 70 18 120 4z m797 -9 c13 -7 20 -21 20 -42 0 -27 -3
-30 -22 -24 -52 16 -110 19 -118 6 -14 -23 0 -37 60 -59 68 -25 90 -50 90
-102 0 -66 -71 -111 -152 -94 -67 13 -68 14 -68 56 l0 40 30 -16 c40 -21 106
-20 114 1 9 24 -10 42 -57 55 -117 31 -131 153 -22 191 25 9 100 2 125 -12z
m373 9 c34 -9 37 -13 37 -46 0 -32 -2 -35 -22 -28 -13 4 -43 8 -68 9 -38 1
-45 -2 -45 -19 0 -14 13 -24 50 -38 71 -26 100 -57 99 -107 -2 -77 -70 -113
-169 -91 l-55 12 0 39 0 39 36 -15 c20 -8 52 -14 72 -12 32 3 37 7 37 27 0 20
-8 27 -47 40 -26 9 -59 25 -75 37 -23 17 -28 28 -27 63 3 82 74 119 177 90z
m-3193 -28 c0 -29 -2 -30 -51 -33 l-51 -3 1 -127 2 -128 -40 0 -41 0 0 130 0
130 -50 0 c-49 0 -50 1 -50 30 l0 30 140 0 140 0 0 -29z m240 -81 c0 -97 2
-112 20 -130 26 -26 72 -26 96 1 16 18 19 37 19 130 l0 109 39 0 38 0 -3 -122
c-4 -129 -11 -152 -58 -184 -34 -24 -111 -28 -150 -7 -63 33 -73 58 -79 192
l-5 121 42 0 41 0 0 -110z m568 104 c49 -10 91 -53 112 -114 10 -30 15 -56 9
-58 -5 -2 -9 -11 -9 -20 0 -33 -41 -83 -83 -102 -30 -14 -65 -20 -124 -20
l-83 0 0 160 0 160 74 0 c40 0 87 -3 104 -6z m374 -18 c3 -13 1 -31 -4 -40
-12 -21 -1 -56 18 -56 8 0 12 -5 9 -10 -4 -6 -10 -8 -15 -5 -16 10 -17 -20 -2
-37 10 -12 11 -18 4 -18 -7 0 -11 -10 -11 -22 1 -18 2 -19 6 -5 5 20 23 13 23
-9 0 -8 -7 -14 -15 -14 -8 0 -16 -6 -17 -12 0 -7 -2 -17 -3 -23 -2 -5 -3 -18
-4 -27 -1 -14 -10 -18 -35 -18 -28 0 -35 4 -39 23 l-4 22 -8 -22 c-4 -13 -14
-23 -21 -23 -12 0 -12 5 1 30 9 17 20 30 25 30 6 0 10 9 10 20 0 13 -7 20 -20
20 -11 0 -20 -5 -20 -10 0 -7 -7 -7 -21 0 -29 16 -33 7 -14 -30 20 -39 13 -48
-21 -30 -19 11 -24 19 -19 37 4 17 2 21 -10 17 -10 -4 -15 -2 -13 7 2 8 -2 13
-8 12 -6 -1 -10 6 -9 15 4 33 17 62 27 62 6 0 8 -6 5 -14 -3 -8 -2 -27 3 -43
4 -15 9 -23 9 -16 1 7 8 10 16 7 8 -4 15 -1 15 5 0 6 5 11 11 11 6 0 8 -7 5
-16 -4 -10 -1 -14 6 -12 21 7 15 28 -12 41 -17 9 -24 20 -23 35 2 12 -1 21 -5
19 -4 -1 -8 3 -9 8 -2 6 7 10 20 10 17 0 23 -7 25 -29 3 -26 32 -69 32 -49 0
4 7 -1 15 -11 14 -18 15 -9 15 87 l0 107 39 0 c33 0 39 -4 43 -24z m1278 -6
l0 -30 -65 0 -65 0 0 -30 c0 -30 1 -30 55 -30 54 0 55 0 55 -30 0 -30 -1 -30
-55 -30 l-55 0 0 -40 0 -40 65 0 65 0 0 -30 0 -30 -100 0 -99 0 -3 160 -3 160
103 0 102 0 0 -30z m1030 -130 l0 -160 -37 0 -38 0 3 160 3 160 34 0 35 0 0
-160z m390 130 c0 -29 -1 -29 -62 -32 -59 -3 -62 -4 -65 -30 -4 -28 -3 -28 52
-28 54 0 55 0 55 -30 0 -30 -1 -30 -53 -30 l-53 0 1 -37 1 -38 67 -3 c67 -3
67 -3 67 -32 l0 -30 -105 0 -105 0 0 160 0 160 100 0 100 0 0 -30z m5628 -26
c34 -23 65 -93 66 -146 1 -25 -2 -49 -6 -53 -4 -4 -37 -8 -74 -9 -61 -1 -68 1
-83 24 -9 13 -37 45 -62 70 -64 63 -69 84 -27 110 42 25 152 28 186 4z m449
-345 c24 -11 43 -24 43 -28 0 -5 9 -19 20 -32 15 -17 20 -34 18 -63 -3 -38 -7
-43 -58 -71 -46 -25 -60 -40 -83 -86 -36 -72 -31 -114 14 -104 25 6 29 4 29
-15 0 -11 -9 -31 -20 -43 -17 -17 -23 -19 -29 -8 -5 8 -16 11 -25 8 -11 -4
-19 0 -23 11 -4 9 -13 23 -20 30 -12 12 -19 85 -13 136 1 11 12 34 25 50 48
64 40 103 -18 93 -29 -4 -36 -2 -47 19 -17 31 -28 30 -65 -4 -17 -15 -52 -46
-78 -70 -26 -24 -52 -40 -57 -37 -22 14 -10 72 25 118 28 36 43 47 73 52 20 3
46 11 57 17 96 55 160 62 232 27z"/>
<path d="M2981 4715 c-19 -13 -48 -45 -64 -70 -33 -50 -77 -167 -77 -203 0
-13 -11 -68 -25 -122 -14 -55 -29 -125 -34 -157 -26 -165 -43 -263 -53 -308
-14 -61 -12 -192 4 -303 10 -72 15 -86 40 -108 22 -18 41 -24 76 -24 71 1 127
46 174 141 39 80 89 228 108 324 7 33 19 85 26 115 24 100 35 213 41 408 6
212 -1 253 -54 306 -35 36 -112 36 -162 1z"/>
<path d="M3047 2038 c-10 -57 -17 -106 -17 -110 0 -13 99 -9 133 6 45 19 68
48 74 96 10 76 -31 110 -132 110 l-41 0 -17 -102z"/>
<path d="M3754 1761 c-114 -52 -163 -217 -86 -294 26 -26 40 -31 92 -35 114
-8 194 46 224 151 18 59 10 115 -21 149 -43 49 -137 62 -209 29z"/>
<path d="M2980 1679 c0 -8 -9 -63 -20 -124 -11 -60 -20 -112 -20 -114 0 -2 42
-2 93 1 143 8 207 53 207 145 -1 72 -38 94 -167 101 -75 4 -93 2 -93 -9z"/>
<path d="M2547 1220 c-22 -16 -33 -31 -27 -35 6 -3 7 -11 4 -17 -4 -6 -10 -5
-15 3 -7 11 -15 8 -34 -14 -14 -15 -25 -32 -25 -36 0 -5 78 -7 173 -6 94 2
199 4 231 4 l59 1 -24 23 c-13 13 -29 32 -35 43 -10 17 -22 19 -138 17 l-126
-3 6 25 c8 32 -2 31 -49 -5z"/>
<path d="M3008 935 c-3 -4 -1 -25 4 -48 5 -23 7 -66 3 -94 l-6 -53 31 0 c48 0
90 47 90 100 0 52 -42 100 -88 100 -16 0 -31 -2 -34 -5z"/>
<path d="M1652 2073 c-23 -11 -40 -32 -61 -77 -66 -138 -94 -412 -51 -483 17
-28 25 -33 59 -33 73 0 121 84 161 279 34 168 23 293 -28 320 -27 15 -41 14
-80 -6z"/>
</g>
</svg>
